<svg width="75" height="65" viewBox="0 0 75 65" fill="none" xmlns="http://www.w3.org/2000/svg">
<path d="M23.0276 53.1331C22.8313 54.5154 22.2868 55.6983 21.3942 56.6818C20.5425 57.6558 19.4008 58.3091 17.9689 58.6417C16.5779 58.9649 14.2714 58.5952 11.0494 57.5328C7.86835 56.4608 5.38212 55.8742 3.59073 55.773C2.8283 57.5023 1.86566 59.0195 0.702799 60.3245C-0.460058 61.6295 -1.3074 62.3438 -1.83924 62.4674C-2.24835 62.5624 -3.2709 61.8729 -4.90689 60.3989C-6.55239 58.8839 -7.46543 57.7378 -7.64601 56.9605C-7.75056 56.5105 -7.27326 55.6882 -6.21413 54.4935C-5.11409 53.2893 -3.88615 52.3573 -2.53031 51.6974C-2.0873 48.9642 -1.87901 45.0352 -1.90542 39.9102C-1.94134 34.7443 -2.25599 29.4923 -2.84936 24.1541C-3.00143 23.4995 -3.40702 22.7745 -4.06613 21.979C-4.69383 21.1331 -5.29922 20.4761 -5.88229 20.0079L-6.69554 19.2913L-6.72528 18.328C-4.43222 17.0623 -0.483322 15.7784 5.12142 14.4763C5.86235 15.2528 6.44666 16.5615 6.87435 18.4025C7.30203 20.2435 7.40698 23.108 7.18918 26.9962C6.97138 30.8843 6.51555 35.6039 5.82169 41.1549C5.15923 46.6555 4.79412 49.9095 4.72634 50.917C4.89949 50.9199 5.44413 50.9443 6.36028 50.9902C7.27643 51.036 7.86673 51.0714 8.1312 51.0962C8.42708 51.0706 8.98743 51.0697 9.81225 51.0937C10.6276 51.0768 11.2697 51.0569 11.7388 51.0342C12.1983 50.9706 12.8057 50.8941 13.5611 50.8049C14.8769 50.7148 16.0871 50.5414 17.1916 50.2848C18.3371 50.0187 19.0888 49.5423 19.4467 48.8555L20.4236 45.2653L22.5627 45.2857C23.1805 47.9449 23.3354 50.5607 23.0276 53.1331ZM24.1283 44.7927C22.9403 39.6789 23.5382 35.2928 25.9222 31.6344C28.3376 27.9256 31.509 25.615 35.4364 24.7026C37.8501 24.1419 39.9721 24.2741 41.8023 25.0994C43.6326 25.9246 44.7805 27.3395 45.2462 29.3442C45.7024 31.3079 45.576 33.0835 44.8668 34.6712C44.1986 36.2493 43.2341 37.5729 41.9733 38.642C39.4013 40.7486 36.9512 42.2664 34.6231 43.1954L33.193 43.7216C34.3728 47.5007 36.3946 49.0576 39.2583 48.3923C40.2402 48.1642 41.2263 47.6764 42.2169 46.9288C43.2074 46.1813 43.9525 45.4908 44.4521 44.8573L45.2015 43.907L47.1305 45.5286C46.9077 46.0546 46.391 46.7999 45.5802 47.7644C44.7694 48.7289 43.9915 49.5564 43.2464 50.2469C41.1778 52.1073 38.732 53.3654 35.9092 54.0212C33.0864 54.6769 30.6239 54.1926 28.5218 52.5682C26.4196 50.9437 24.9551 48.3519 24.1283 44.7927ZM32.4331 40.729C34.434 39.876 35.8866 38.6116 36.7907 36.9355C37.6949 35.2594 37.8904 33.3168 37.3772 31.1076C36.8639 28.8984 35.9527 27.9459 34.6436 28.25C33.089 28.6112 32.191 30.2212 31.9497 33.0799C31.7397 35.8883 31.9009 38.438 32.4331 40.729ZM48.6386 39.0985C47.4506 33.9847 48.0486 29.5986 50.4326 25.9402C52.848 22.2314 56.0194 19.9209 59.9468 19.0085C62.3605 18.4477 64.4825 18.58 66.3127 19.4052C68.1429 20.2304 69.2909 21.6454 69.7566 23.65C70.2128 25.6137 70.0863 27.3894 69.3772 28.977C68.709 30.5552 67.7445 31.8788 66.4837 32.9478C63.9117 35.0545 61.4616 36.5723 59.1334 37.5012L57.7034 38.0275C58.8832 41.8065 60.9049 43.3634 63.7687 42.6981C64.7505 42.47 65.7367 41.9822 66.7272 41.2347C67.7178 40.4871 68.4628 39.7966 68.9624 39.1631L69.7119 38.2129L71.6408 39.8344C71.4181 40.3605 70.9013 41.1057 70.0906 42.0702C69.2798 43.0347 68.5019 43.8622 67.7568 44.5527C65.6881 46.4131 63.2424 47.6712 60.4195 48.327C57.5967 48.9828 55.1342 48.4985 53.0321 46.874C50.93 45.2496 49.4655 42.6577 48.6386 39.0985ZM56.9435 35.0348C58.9444 34.1819 60.3969 32.9174 61.3011 31.2413C62.2053 29.5652 62.4007 27.6226 61.8875 25.4134C61.3743 23.2043 60.4631 22.2517 59.154 22.5559C57.5994 22.917 56.7014 24.527 56.46 27.3858C56.2501 30.1941 56.4112 32.7438 56.9435 35.0348Z" fill="#F9C710"/>
</svg>
