<svg width="221" height="62" viewBox="0 0 221 62" fill="none" xmlns="http://www.w3.org/2000/svg">
<path d="M1.063 61.112C0.853 60.608 0.748 59.495 0.748 57.773C0.748 56.051 1.567 51.431 3.205 43.913C4.843 36.353 5.662 30.536 5.662 26.462C5.662 25.664 5.473 24.824 5.095 23.942C4.717 23.018 4.318 22.304 3.898 21.8L3.331 21.107L3.394 20.288C5.368 19.658 8.854 19.343 13.852 19.343C14.314 20.225 14.608 21.464 14.734 23.06C17.968 20.414 20.656 19.091 22.798 19.091C24.982 19.091 26.725 19.994 28.027 21.8C29.371 23.606 30.043 26.252 30.043 29.738C30.043 35.828 28.93 40.364 26.704 43.346C24.478 46.286 21.664 47.756 18.262 47.756C16.498 47.756 15.028 47.504 13.852 47L13.222 46.748L13.663 44.291C14.041 44.375 14.482 44.417 14.986 44.417C16.078 44.417 17.023 43.913 17.821 42.905C18.661 41.897 19.291 40.616 19.711 39.062C20.551 35.954 20.971 33.077 20.971 30.431C20.971 26.651 20.194 24.761 18.64 24.761C17.422 24.761 16.12 25.244 14.734 26.21C14.566 29.15 13.705 34.295 12.151 41.645C10.597 48.995 9.82 54.917 9.82 59.411C7.552 60.335 4.633 60.902 1.063 61.112ZM41.7334 47.756C38.8354 47.756 36.5674 46.748 34.9294 44.732C33.2914 42.674 32.4724 39.818 32.4724 36.164C32.4724 31.502 33.7114 27.491 36.1894 24.131C38.7094 20.771 42.1744 19.091 46.5844 19.091L48.8524 19.217C49.5664 18.839 50.3644 18.65 51.2464 18.65C54.5644 18.65 56.2234 21.779 56.2234 28.037C57.9454 27.953 59.6884 27.722 61.4524 27.344L62.4604 27.092L62.8384 29.549C61.4524 30.137 59.5834 30.662 57.2314 31.124L55.9714 31.376C55.1734 35.786 53.5564 39.629 51.1204 42.905C48.6844 46.139 45.5554 47.756 41.7334 47.756ZM45.1354 42.338C46.8994 42.338 48.4744 41.204 49.8604 38.936C51.2884 36.668 52.2754 34.274 52.8214 31.754C48.3274 31.754 46.0804 30.074 46.0804 26.714C46.0804 25.37 46.3534 24.11 46.8994 22.934L47.2144 22.304C47.0464 22.22 46.8364 22.178 46.5844 22.178C46.3324 22.178 46.1434 22.22 46.0174 22.304C44.9674 22.976 43.9804 24.551 43.0564 27.029C42.1324 29.507 41.6704 32.342 41.6704 35.534C41.6704 40.07 42.8254 42.338 45.1354 42.338ZM59.0904 47.189H58.6494C58.5654 46.853 58.5234 46.097 58.5234 44.921C58.5234 43.703 59.0904 40.469 60.2244 35.219C61.3584 29.969 61.9254 26.966 61.9254 26.21C61.9254 24.908 61.3374 23.48 60.1614 21.926L59.5944 21.17L59.6574 20.351C61.9254 19.721 65.5584 19.406 70.5564 19.406C71.0604 20.498 71.3124 22.031 71.3124 24.005C71.7744 23.249 72.7404 22.241 74.2104 20.981C75.6804 19.721 77.1924 19.091 78.7464 19.091C81.0144 19.091 82.1484 21.065 82.1484 25.013C81.9384 25.265 81.6444 25.601 81.2664 26.021C80.9304 26.399 80.2164 26.945 79.1244 27.659C78.0744 28.373 77.0454 28.814 76.0374 28.982C75.9954 28.982 75.6384 28.415 74.9664 27.281C74.2944 26.147 73.7904 25.58 73.4544 25.58C72.4044 25.958 71.4804 26.588 70.6824 27.47C68.7504 36.164 67.7844 41.792 67.7844 44.354C67.7844 45.278 67.8054 45.929 67.8474 46.307C66.3774 46.895 63.4584 47.189 59.0904 47.189ZM101.728 19.847C101.644 20.897 101.287 22.115 100.657 23.501C99.0611 23.333 97.5491 23.249 96.1211 23.249H94.9871C93.0551 32.615 92.0891 38.453 92.0891 40.763C92.0891 41.981 92.3411 42.59 92.8451 42.59C93.3911 42.59 94.7981 42.065 97.0661 41.015L98.2001 43.094C94.4621 46.202 90.9971 47.756 87.8051 47.756C86.3351 47.756 85.1171 47.294 84.1511 46.37C83.2271 45.446 82.7651 44.228 82.7651 42.716C82.7651 41.162 82.9331 39.419 83.2691 37.487C83.6471 35.555 84.1511 33.203 84.7811 30.431C85.4111 27.617 85.8731 25.349 86.1671 23.627C84.6131 23.753 83.4581 23.879 82.7021 24.005C82.6181 23.501 82.5761 22.829 82.5761 21.989C82.5761 21.107 82.6391 20.393 82.7651 19.847H86.7341C87.0701 17.579 87.2381 15.437 87.2381 13.421L87.1751 11.468V11.279C90.4511 10.145 93.5381 9.578 96.4361 9.578C96.6041 10.418 96.6881 11.468 96.6881 12.728C96.6881 13.988 96.3311 16.361 95.6171 19.847H101.728ZM131.598 19.847C131.514 20.771 131.136 21.989 130.464 23.501C128.868 23.333 127.293 23.249 125.739 23.249H125.487C124.605 33.623 123.786 41.288 123.03 46.244C122.274 51.2 121.287 54.665 120.069 56.639C118.557 56.597 116.982 56.387 115.344 56.009C113.748 55.673 112.656 55.316 112.068 54.938C113.076 51.83 114.084 47.147 115.092 40.889C116.142 34.631 116.814 28.856 117.108 23.564C115.932 23.648 114.63 23.795 113.202 24.005C113.076 23.459 113.013 22.913 113.013 22.367C113.013 21.779 113.097 20.939 113.265 19.847H117.297C117.381 16.193 117.57 13.421 117.864 11.531C118.368 8.171 119.523 5.546 121.329 3.656C123.177 1.724 125.55 0.757998 128.448 0.757998C130.296 0.757998 131.745 1.178 132.795 2.018C133.887 2.816 134.433 4.097 134.433 5.861C134.433 7.625 133.635 9.914 132.039 12.728C130.443 15.5 128.343 17.873 125.739 19.847H131.598ZM125.865 15.878C127.503 14.492 128.784 12.959 129.708 11.279C130.632 9.599 131.094 8.087 131.094 6.743C131.094 5.357 130.653 4.664 129.771 4.664C127.923 4.664 126.747 6.785 126.243 11.027C126.075 12.455 125.949 14.072 125.865 15.878ZM139.556 47.756C136.658 47.756 134.39 46.748 132.752 44.732C131.114 42.674 130.295 39.818 130.295 36.164C130.295 31.502 131.534 27.491 134.012 24.131C136.532 20.771 139.997 19.091 144.407 19.091L146.675 19.217C147.389 18.839 148.187 18.65 149.069 18.65C152.387 18.65 154.046 21.779 154.046 28.037C155.768 27.953 157.511 27.722 159.275 27.344L160.283 27.092L160.661 29.549C159.275 30.137 157.406 30.662 155.054 31.124L153.794 31.376C152.996 35.786 151.379 39.629 148.943 42.905C146.507 46.139 143.378 47.756 139.556 47.756ZM142.958 42.338C144.722 42.338 146.297 41.204 147.683 38.936C149.111 36.668 150.098 34.274 150.644 31.754C146.15 31.754 143.903 30.074 143.903 26.714C143.903 25.37 144.176 24.11 144.722 22.934L145.037 22.304C144.869 22.22 144.659 22.178 144.407 22.178C144.155 22.178 143.966 22.22 143.84 22.304C142.79 22.976 141.803 24.551 140.879 27.029C139.955 29.507 139.493 32.342 139.493 35.534C139.493 40.07 140.648 42.338 142.958 42.338ZM161.365 47.756C159.937 47.756 158.74 47.273 157.774 46.307C156.85 45.341 156.388 43.997 156.388 42.275C156.388 40.511 157.417 34.946 159.475 25.58C161.575 16.172 162.625 9.389 162.625 5.231L162.247 2.459C165.523 1.325 168.589 0.757998 171.445 0.757998C171.865 1.346 172.075 2.375 172.075 3.845C172.075 7.205 171.004 13.715 168.862 23.375C166.762 32.993 165.712 38.6 165.712 40.196C165.712 41.75 165.901 42.527 166.279 42.527L170.689 40.952L171.823 43.157C170.395 44.291 168.652 45.341 166.594 46.307C164.578 47.273 162.835 47.756 161.365 47.756ZM186.289 22.997C186.289 24.761 185.722 27.806 184.588 32.132C183.454 36.416 182.887 39.23 182.887 40.574C182.887 41.876 183.076 42.527 183.454 42.527C183.706 42.527 184.672 42.128 186.352 41.33L187.108 40.952L188.179 43.157C187.801 43.493 187.297 43.913 186.667 44.417C186.037 44.921 184.861 45.614 183.139 46.496C181.417 47.336 179.821 47.756 178.351 47.756C176.881 47.756 175.726 47.315 174.886 46.433C174.046 45.509 173.626 44.291 173.626 42.779C173.626 41.225 174.151 38.495 175.201 34.589C176.251 30.641 176.776 28.079 176.776 26.903C176.776 25.139 176.23 23.48 175.138 21.926L174.571 21.17L174.634 20.351C176.86 19.721 180.472 19.406 185.47 19.406C186.016 20.036 186.289 21.233 186.289 22.997ZM179.107 12.539C178.267 11.699 177.847 10.586 177.847 9.2C177.847 7.814 178.414 6.596 179.548 5.546C180.724 4.496 182.068 3.971 183.58 3.971C185.092 3.971 186.268 4.391 187.108 5.231C187.948 6.071 188.368 7.184 188.368 8.57C188.368 9.914 187.759 11.111 186.541 12.161C185.365 13.211 184.042 13.736 182.572 13.736C181.102 13.736 179.947 13.337 179.107 12.539ZM199.233 47.756C196.335 47.756 194.067 46.748 192.429 44.732C190.791 42.674 189.972 39.818 189.972 36.164C189.972 31.502 191.211 27.491 193.689 24.131C196.209 20.771 199.674 19.091 204.084 19.091L206.352 19.217C207.066 18.839 207.864 18.65 208.746 18.65C212.064 18.65 213.723 21.779 213.723 28.037C215.445 27.953 217.188 27.722 218.952 27.344L219.96 27.092L220.338 29.549C218.952 30.137 217.083 30.662 214.731 31.124L213.471 31.376C212.673 35.786 211.056 39.629 208.62 42.905C206.184 46.139 203.055 47.756 199.233 47.756ZM202.635 42.338C204.399 42.338 205.974 41.204 207.36 38.936C208.788 36.668 209.775 34.274 210.321 31.754C205.827 31.754 203.58 30.074 203.58 26.714C203.58 25.37 203.853 24.11 204.399 22.934L204.714 22.304C204.546 22.22 204.336 22.178 204.084 22.178C203.832 22.178 203.643 22.22 203.517 22.304C202.467 22.976 201.48 24.551 200.556 27.029C199.632 29.507 199.17 32.342 199.17 35.534C199.17 40.07 200.325 42.338 202.635 42.338Z" fill="white"/>
</svg>
